<?xml version="1.0" standalone="no"?>
<!DOCTYPE svg PUBLIC "-//W3C//DTD SVG 20010904//EN"
 "http://www.w3.org/TR/2001/REC-SVG-20010904/DTD/svg10.dtd">
<svg version="1.0" xmlns="http://www.w3.org/2000/svg"
 width="700.000000pt" height="700.000000pt" viewBox="0 0 700.000000 700.000000"
 preserveAspectRatio="xMidYMid meet">
<metadata>
Created by potrace 1.11, written by Peter Selinger 2001-2013
</metadata>
<g transform="translate(0.000000,700.000000) scale(0.100000,-0.100000)"
fill="#000000" stroke="none">
<path d="M3290 6994 c-322 -27 -512 -60 -760 -131 -836 -238 -1571 -800 -2026
-1549 -656 -1083 -674 -2446 -46 -3549 41 -71 189 -300 227 -349 18 -23 16
-24 189 114 1334 1064 2240 2604 2525 4290 51 302 91 676 91 859 0 46 2 82 4
80 2 -2 9 -86 15 -186 125 -1991 1065 -3803 2620 -5050 85 -67 158 -123 162
-123 4 0 37 42 73 93 299 430 506 936 585 1437 36 225 44 332 44 575 0 248
-14 403 -54 629 -115 648 -439 1284 -898 1768 -580 611 -1326 982 -2171 1078
-98 11 -501 21 -580 14z"/>
</g>
</svg>
